<mxfile host="app.diagrams.net" modified="2024-07-16T19:48:36.573Z" agent="Mozilla/5.0 (Windows NT 10.0; Win64; x64) AppleWebKit/537.36 (KHTML, like Gecko) Chrome/125.0.0.0 Safari/537.36 OPR/111.0.0.0" version="24.6.5" etag="bJZoGrtJC5a9oica1ANW" type="github">
  <diagram name="PÃ¡gina-1" id="d7oauH3OygUMu3JjePPY">
    <mxGraphModel>
      <root>
        <mxCell id="0" />
        <mxCell id="1" parent="0" />
      </root>
    </mxGraphModel>
  </diagram>
</mxfile>
